<svg xmlns="http://www.w3.org/2000/svg" xmlns:xlink="http://www.w3.org/1999/xlink" width="220" height="346"><defs><path id="a" d="M0.025 0.372L146.783 0.372 146.783 51 0.025 51z"/><path id="c" d="M0.06 0.948L219.399 0.948 219.399 300.486 0.06 300.486z"/></defs><g fill="none" fill-rule="evenodd"><path fill="#FFF" d="M73.829 298.985c-4.68 0-9.088-1.216-12.538-3.441a16.32 16.32 0 0 1-8.51 2.348c-12.532 0-25.079-13.19-30.044-21.504-15.55-26.036-12.407-50.158-11.925-53.221-.499-2.44-4.115-20.486-5.73-38.795-2.427-27.508.946-76.512 3.989-100.969 2.467-19.832 5.216-29.294 8.547-36.829C13.303 42.906 3.088 33.032 1.7 20.815c-.726-6.383.614-12.354 3.495-15.58 1.628-1.823 3.728-2.786 6.074-2.786.725 0 1.481.091 2.248.272 6.526 1.541 7.426 8.46 8.379 15.785.464 3.569.944 7.258 2.064 10.618 2.183 6.548 5.152 7.057 6.01 7.057l.059-.001c.967-.626 4.118-2.535 10.611-5.386a170.832 170.832 0 0 0 9.24-4.363c6.34-3.208 8.922-5.213 9.738-5.926 1.751-1.531 2.94-2.184 3.974-2.184.921 0 1.996.554 2.25 2.109.35 2.14-.522 6.028-2.195 9.066 3.985.672 9.37 2.439 13.863 5.075 2.544-2.656 6.114-9.064 6.772-17.726.669-8.809 4.923-14.281 11.102-14.281 1.465 0 3.002.319 4.568.95 2.412.972 4.15 2.734 5.168 5.235 1.94 4.769 1.059 12.244-2.358 19.994C98.87 37.572 91.28 43.434 87.633 46.25l-.401.311c6.57 10.105 6.491 36.808 6.443 53.033-.003 1.218-.007 2.363-.007 3.42 0 1.936-.013 4.005-.028 6.164-.099 15.17-.234 35.946 4.44 44.117 2.77 4.843 6.489 6.398 15.304 6.398 2.805 0 6.012-.148 9.725-.319 5.107-.235 10.896-.501 17.843-.501 2.488 0 4.995.036 7.452.106 11.149.319 21.291 2.76 30.165 7.255 2.342-2.011 6.781-6.689 10.135-15.403a1.503 1.503 0 0 1 1.4-.961c.041 0 .082.002.123.004 3.134.258 5.591 2.517 6.903 5.12a9.9 9.9 0 0 1 5.78-1.832c3.372 0 6.47 1.646 8.086 4.296 1.982 3.248 1.968 6.976 1.295 9.382-.095.344-.22.72-.382 1.092 1.741.956 3.335 2.597 4.417 4.616 2.01 3.752 2.095 8.418.241 13.14-2.088 5.311-6.412 7.858-10.404 8.624 4.712 9.239 8.155 18.681 7.698 39.606-.475 21.659-4.788 31.736-14.514 49.568-5.436 9.965-12.371 15.018-20.614 15.018h-.001c-3.852 0-7.931-1.079-12.446-3.294-3.285 1.762-6.486 2.655-9.527 2.655-9.449 0-17.329-8.495-22.833-24.59-3.162.551-6.672.829-10.454.829-9.398 0-18.041-1.679-21.517-2.45-.509 2.568-1.94 7.845-5.824 14.525-4.663 8.019-13 12.806-22.302 12.806"/><g transform="translate(40 295)"><mask id="b" fill="#fff"><use xlink:href="#a"/></mask><path fill="#000" d="M12.781 2.892c-3.373 0-6.746-.962-9.973-2.52.284 9.314 1.114 38.392.444 40.064-.8 1.991-3.764 2.904-3.142 5.982.622 3.079 9.98 4.022 13.712-1.184 1.657-1.766 2.356-33.197 2.53-42.728a16.675 16.675 0 0 1-3.571.386m21.048 1.093c-1.85 0-3.655-.197-5.378-.565.35 11.762 1.024 37.153.379 38.741-.842 2.072-3.963 3.021-3.308 6.223.654 3.202 10.509 4.183 14.439-1.232 1.758-1.852 2.492-35.08 2.668-44.689a26.046 26.046 0 0 1-8.8 1.522m82.93-1.12c-2.755 0-5.372-.744-7.841-2.166.294 9.65 1.097 38.085.434 39.737-.799 1.991-3.763 2.904-3.141 5.982.621 3.079 9.98 4.022 13.712-1.184 1.695-1.807 2.388-34.682 2.541-43.358-1.949.654-3.857.989-5.705.989m21.974.639h-.001c-1.973 0-4.007-.288-6.127-.861.349 11.757 1.024 37.162.379 38.751-.842 2.071-3.963 3.021-3.308 6.224.654 3.201 10.509 4.182 14.438-1.233 1.76-1.852 2.494-35.091 2.669-44.693a18.584 18.584 0 0 1-8.05 1.812" mask="url(#b)"/></g><path fill="#000" d="M82.835 68.349c.484 4.122-1.451 7.737-4.321 8.074-2.87.337-5.589-2.732-6.072-6.855-.484-4.123 1.45-7.738 4.32-8.075 2.87-.337 5.589 2.733 6.073 6.856"/><path fill="#DCD2FA" d="M67.595 83.171c-.279 10.812-7.141 17.909-15.373 17.696-8.233-.213-14.718-7.654-14.439-18.466.28-10.812 7.18-19.404 15.412-19.192 8.232.213 14.68 9.15 14.4 19.962"/><path fill="#000" d="M63.004 81.95c-.122.42-2.604 4.145-6.021 2.998-3.431-1.153-2.922-5.685-2.856-6.56.889-.429 2.338-1.213 3.617-2.331 1.698-1.485 1.47-3.406-.145-3.526-1.479-.111-3.612 1.823-4.724 3.084-1.046-1.316-3.076-3.358-4.56-3.325-1.618.038-1.945 1.944-.326 3.515 1.219 1.183 2.626 2.04 3.492 2.515.021.877.295 5.429-3.191 6.403-3.472.969-5.758-2.879-5.858-3.305-.674 1.002-.157 3.864 2.002 5.42 1.993 1.436 5.903 1.493 7.716-1.32.184-.287.344-.575.491-.863.132.296.277.592.446.886 1.665 2.905 5.573 3.049 7.637 1.718 2.237-1.443 2.901-4.274 2.28-5.309m4.149 48.315c3.788-.06 5.531 9.079 4.99 15.632-.541 6.554-2.345 9.019-5.952 9.019-3.608 0-12.627-5.05-13.649-8.718-.308-1.105-.675-2.6.781-4.69 3.377-4.845 11.183-11.201 13.83-11.243"/><path fill="#000" d="M37.266 130.265c-3.788-.06-5.531 9.079-4.99 15.632.541 6.554 2.345 9.019 5.952 9.019 3.608 0 12.627-5.05 13.649-8.718.308-1.105.674-2.6-.782-4.69-3.376-4.845-11.182-11.201-13.829-11.243"/><path fill="#000" d="M57.147 144.455c0 3.307-2.21 5.988-4.937 5.988-2.727 0-4.938-2.681-4.938-5.988 0-3.309 2.211-5.99 4.938-5.99s4.937 2.681 4.937 5.99"/><mask id="d" fill="#fff"><use xlink:href="#c"/></mask><path fill="#000" d="M34.988 72.019c.766-3.349-1.403-7.078-4.896-8.991-4.292-2.35-7.997-1.05-8.029-.528-.032.523 4.318 1.05 7.189 5.472-2.345-.642-5.133.115-7.024 1.178s-2.753 2.444-2.692 2.675c.161.609 2.293-.661 7.173-.568 5.687.107 7.937 2.259 8.279.762" mask="url(#d)"/><path fill="#6C28F5" d="M206.604 192.683c-3.824.83-6.931-.045-8.686-1.036-.082-.046-.179-.107-.263-.157 1.756 3.944 5.194 4.511 7.786 4.65 4.292 8.926 7.326 19.123 6.919 37.744-.462 21.149-4.622 31.087-14.329 48.883-5.856 10.734-12.676 14.237-19.298 14.237-3.867 0-7.664-1.197-11.162-2.844-6.183-3.533-11.925-10.332-16.082-17.184-5.144-8.478-7.965-21.56-7.965-21.56a44.897 44.897 0 0 0 1.043 11.999c-3.365 2.415-10.341 5.036-21.095 5.189-9.183.131-17.745-1.657-21.169-2.412a46.81 46.81 0 0 1-1.235-.309l.425.125a40.82 40.82 0 0 1-.766-.183s-.564 6.434-5.893 15.6c-4.947 8.507-13.314 12.061-21.005 12.061a23.87 23.87 0 0 1-6.487-.893c-8.057-2.779-15.637-9.631-20.818-16.99-7.733-10.985-13.077-24.32-13.074-24.115.127 7.722 6.455 19.909 10.996 26.322 5.333 7.532 10.844 11.784 13.618 13.633a14.904 14.904 0 0 1-5.282.949c-11.514 0-23.673-12.259-28.758-20.773-12.453-20.852-12.662-40.66-12.096-48.702 3.539 5.769 7.999 10.528 12.881 11.374-4.257-2.998-7.867-7.979-10.955-13.884-4.198-8.031-6.447-26.027-7.292-41.089-1.509-26.865.805-74.073 3.997-99.73 2.502-20.11 5.331-29.678 8.896-37.439C13.1 41.002 4.421 31.473 3.19 20.646c-.94-8.274 1.714-16.698 8.079-16.698.601 0 1.236.075 1.903.233 8.333 1.967 5.915 15.067 9.365 25.418 2.437 7.312 6.029 8.082 7.433 8.082.375 0 .594-.055.594-.055s2.87-2.03 10.679-5.459a171.462 171.462 0 0 0 9.314-4.398c5.344-2.704 8.545-4.821 10.048-6.135 1.4-1.223 2.375-1.813 2.987-1.813.428 0 .677.289.77.851.37 2.266-1.004 7.312-3.341 10.031 3.62.164 10.915 2.074 16.677 5.739 2.992-2.428 7.346-9.823 8.08-19.484.606-7.985 4.294-12.894 9.606-12.894 1.252 0 2.594.273 4.007.842 7.41 2.984 5.905 14.37 1.998 23.231-4.494 10.194-14.4 16.487-16.208 18.158 7.668 9.214 6.987 41.735 6.987 56.719 0 16.055-.932 41.338 4.61 51.027 3.35 5.855 8.233 7.152 16.607 7.152 6.658 0 15.519-.82 27.567-.82 2.345 0 4.816.031 7.409.106 12.461.356 22.443 3.349 30.394 7.54 2.338-1.815 7.521-6.704 11.35-16.649 3.198.262 5.716 3.303 6.397 6.24 1.673-2.013 4.063-2.949 6.408-2.949 2.728 0 5.397 1.266 6.806 3.578 2.622 4.3 1.259 9.649-.157 10.383 3.88.838 9.316 7.087 5.61 16.517-1.659 4.223-4.979 6.766-8.565 7.544zm-49.845 103.681c-11.047 0-17.536-12.838-20.886-22.076 4.55-1.052 7.828-2.781 9.494-3.816 3.741 12.358 12.204 20.646 17.824 24.532-2.297.931-4.44 1.36-6.432 1.36zm61.203-110.127c2.019-5.138 1.907-10.25-.313-14.397-.99-1.846-2.373-3.418-3.931-4.531l.019-.067c.756-2.709.771-6.907-1.459-10.565-1.887-3.094-5.476-5.016-9.368-5.016-1.872 0-3.673.443-5.27 1.267-1.638-2.394-4.177-4.293-7.29-4.548a2.999 2.999 0 0 0-3.045 1.912c-2.917 7.575-6.642 11.955-8.981 14.146-8.849-4.305-18.889-6.644-29.877-6.959-2.47-.07-4.991-.106-7.495-.106-6.98 0-12.788.267-17.912.503-3.694.17-6.885.317-9.655.317-8.258 0-11.529-1.319-14.003-5.642-4.474-7.821-4.339-28.363-4.242-43.362.015-2.163.028-4.236.028-6.175 0-1.055.004-2.198.007-3.413.061-20.273-.381-42.395-5.978-52.665 3.732-2.902 11.126-8.945 14.938-17.589 3.577-8.114 4.464-16.025 2.375-21.162-1.161-2.853-3.235-4.949-5.998-6.061-1.744-.703-3.469-1.06-5.128-1.06-7.037 0-11.864 6.003-12.598 15.667-.577 7.603-3.478 13.203-5.612 15.926-3.719-2.021-7.832-3.468-11.337-4.261 1.244-2.954 1.814-6.197 1.485-8.209-.38-2.325-2.148-3.366-3.73-3.366-1.448 0-2.886.74-4.961 2.554-.603.528-3.066 2.498-9.428 5.717a169.071 169.071 0 0 1-9.167 4.328c-5.762 2.531-8.973 4.357-10.364 5.213-.79-.19-2.681-1.157-4.289-5.983-1.074-3.223-1.545-6.84-2-10.337-.976-7.508-1.986-15.273-9.521-17.052a11.356 11.356 0 0 0-2.593-.313c-2.785 0-5.273 1.136-7.193 3.287-3.205 3.59-4.65 9.851-3.867 16.75C1.573 32.98 10.993 42.727 15.805 46.986c-3.188 7.496-5.842 17.095-8.223 36.232-3.051 24.52-5.749 73.617-3.995 101.285 1.6 25.227 5.035 35.413 5.702 38.704-.605 4.146-3.239 28.167 12.16 53.95 3.001 5.025 7.733 10.399 12.659 14.376 4.441 3.586 11.286 7.859 18.674 7.859 3.007 0 5.843-.704 8.455-2.096.078.036.158.07.242.105 3.522 1.997 7.82 3.085 12.35 3.085 9.842 0 18.664-5.067 23.598-13.553 3.338-5.74 4.922-10.519 5.663-13.505 4.158.852 11.976 2.176 20.382 2.176 3.375 0 6.543-.218 9.453-.648 5.719 15.982 13.929 24.408 23.834 24.408 3.077 0 6.284-.832 9.553-2.477.027.013.053.023.08.035.282.137.545.255.779.347 4.122 1.829 7.927 2.734 11.562 2.734 8.834 0 16.213-5.315 21.931-15.799 9.848-18.055 14.214-28.265 14.696-50.253.434-19.904-2.766-29.899-7.019-38.63 4.359-1.388 7.869-4.628 9.621-9.084z" mask="url(#d)"/></g></svg>